<svg xmlns="http://www.w3.org/2000/svg" viewBox="0 0 400 225" fill="none">
  <!-- Clipboard body -->
  <rect x="150" y="45" width="100" height="140" rx="12" fill="white" stroke="#E8E4DF" stroke-width="2"/>
  <rect x="175" y="38" width="50" height="16" rx="8" fill="#B8B5FF" opacity="0.4"/>
  <!-- Check items -->
  <rect x="165" y="75" width="14" height="14" rx="4" fill="#A7E8BD" opacity="0.6"/>
  <path d="M168 82 L171 85 L176 79" stroke="#1B5E3A" stroke-width="2" stroke-linecap="round" stroke-linejoin="round"/>
  <rect x="185" y="78" width="50" height="6" rx="3" fill="#E8E4DF"/>
  <rect x="165" y="100" width="14" height="14" rx="4" fill="#A7E8BD" opacity="0.6"/>
  <path d="M168 107 L171 110 L176 104" stroke="#1B5E3A" stroke-width="2" stroke-linecap="round" stroke-linejoin="round"/>
  <rect x="185" y="103" width="50" height="6" rx="3" fill="#E8E4DF"/>
  <rect x="165" y="125" width="14" height="14" rx="4" fill="#FFD6A5" opacity="0.6"/>
  <rect x="185" y="128" width="50" height="6" rx="3" fill="#E8E4DF"/>
  <rect x="165" y="150" width="14" height="14" rx="4" fill="#B8B5FF" opacity="0.4"/>
  <rect x="185" y="153" width="50" height="6" rx="3" fill="#E8E4DF"/>
  <!-- Floating checkmarks -->
  <g transform="translate(270, 60)" opacity="0.5">
    <circle cx="10" cy="10" r="10" fill="#A7E8BD" opacity="0.3"/>
    <path d="M6 10 L9 13 L14 7" stroke="#1B5E3A" stroke-width="2" stroke-linecap="round"/>
  </g>
  <g transform="translate(120, 90)" opacity="0.4">
    <circle cx="8" cy="8" r="8" fill="#A7E8BD" opacity="0.3"/>
    <path d="M5 8 L7 10 L11 6" stroke="#1B5E3A" stroke-width="1.5" stroke-linecap="round"/>
  </g>
</svg>
