<svg xmlns="http://www.w3.org/2000/svg" viewBox="0 0 400 225" fill="none">
  <!-- Podium -->
  <rect x="140" y="155" width="120" height="30" rx="8" fill="#B8B5FF" opacity="0.2"/>
  <rect x="155" y="145" width="90" height="10" rx="4" fill="#B8B5FF" opacity="0.3"/>
  <!-- Character 1 (boy) -->
  <circle cx="175" cy="115" r="22" fill="#A5D8FF" opacity="0.4"/>
  <circle cx="175" cy="108" r="14" fill="#FFD1DC"/>
  <circle cx="170" cy="106" r="2.5" fill="#2D2B3D"/>
  <circle cx="180" cy="106" r="2.5" fill="#2D2B3D"/>
  <path d="M172 112 Q175 115 178 112" fill="none" stroke="#2D2B3D" stroke-width="1.5" stroke-linecap="round"/>
  <line x1="160" y1="100" x2="155" y2="88" stroke="#FFD6A5" stroke-width="3" stroke-linecap="round"/>
  <!-- Character 2 (girl) -->
  <circle cx="225" cy="115" r="22" fill="#FFD6A5" opacity="0.4"/>
  <circle cx="225" cy="108" r="14" fill="#FFD1DC"/>
  <circle cx="220" cy="106" r="2.5" fill="#2D2B3D"/>
  <circle cx="230" cy="106" r="2.5" fill="#2D2B3D"/>
  <path d="M222 112 Q225 115 228 112" fill="none" stroke="#2D2B3D" stroke-width="1.5" stroke-linecap="round"/>
  <line x1="240" y1="100" x2="245" y2="88" stroke="#FFD6A5" stroke-width="3" stroke-linecap="round"/>
  <!-- Stars -->
  <circle cx="150" cy="80" r="3" fill="#FFD6A5" opacity="0.6"/>
  <circle cx="250" cy="75" r="2.5" fill="#B8B5FF" opacity="0.6"/>
  <circle cx="200" cy="65" r="2" fill="#FFB5A7" opacity="0.6"/>
</svg>
