<svg xmlns="http://www.w3.org/2000/svg" viewBox="0 0 400 225" fill="none">
  <defs>
    <linearGradient id="pp1" x1="0%" y1="0%" x2="100%" y2="100%">
      <stop offset="0%" stop-color="#B8B5FF" stop-opacity="0.3"/>
      <stop offset="100%" stop-color="#87CEEB" stop-opacity="0.3"/>
    </linearGradient>
  </defs>
  <!-- Passport body -->
  <rect x="140" y="30" width="120" height="165" rx="8" fill="#2D3A5C" stroke="#1E2A4A" stroke-width="2"/>
  <!-- Inner rectangle -->
  <rect x="150" y="40" width="100" height="145" rx="4" fill="none" stroke="#B8B5FF" stroke-width="0.5" opacity="0.4"/>
  <!-- Malaysia text -->
  <text x="200" y="60" font-size="8" fill="#FFD6A5" text-anchor="middle" font-family="sans-serif" letter-spacing="3">MALAYSIA</text>
  <!-- Coat of arms (simplified) -->
  <circle cx="200" cy="95" r="25" fill="none" stroke="#FFD6A5" stroke-width="1.5"/>
  <path d="M200 75L205 85H215L207 91L210 101L200 95L190 101L193 91L185 85H195Z" fill="#FFD6A5" opacity="0.6"/>
  <!-- Passport text -->
  <text x="200" y="135" font-size="7" fill="#B8B5FF" text-anchor="middle" font-family="sans-serif" letter-spacing="2">PASSPORT</text>
  <text x="200" y="150" font-size="6" fill="#B8B5FF" text-anchor="middle" font-family="sans-serif" opacity="0.6" letter-spacing="1">PASPORT</text>
  <!-- Floating stamps -->
  <g transform="translate(290, 45)" opacity="0.6">
    <circle cx="0" cy="0" r="20" fill="none" stroke="#A7E8BD" stroke-width="2"/>
    <text x="0" y="3" font-size="6" fill="#A7E8BD" text-anchor="middle" font-family="sans-serif">ENTRY</text>
  </g>
  <g transform="translate(85, 80)" opacity="0.5">
    <rect x="-18" y="-12" width="36" height="24" rx="3" fill="none" stroke="#FFB5A7" stroke-width="2"/>
    <text x="0" y="3" font-size="6" fill="#FFB5A7" text-anchor="middle" font-family="sans-serif">VISA</text>
  </g>
  <g transform="translate(310, 140)" opacity="0.4">
    <circle cx="0" cy="0" r="16" fill="none" stroke="#B8B5FF" stroke-width="1.5"/>
    <text x="0" y="3" font-size="5" fill="#B8B5FF" text-anchor="middle" font-family="sans-serif">KUL</text>
  </g>
  <g transform="translate(100, 160)" opacity="0.5">
    <circle cx="0" cy="0" r="14" fill="none" stroke="#FFD6A5" stroke-width="1.5"/>
    <text x="0" y="2" font-size="5" fill="#FFD6A5" text-anchor="middle" font-family="sans-serif">2026</text>
  </g>
</svg>
